<?xml version="1.0" standalone="no"?>
<!DOCTYPE svg PUBLIC "-//W3C//DTD SVG 20010904//EN"
 "http://www.w3.org/TR/2001/REC-SVG-20010904/DTD/svg10.dtd">
<svg version="1.0" xmlns="http://www.w3.org/2000/svg"
 width="210.000000pt" height="210.000000pt" viewBox="0 0 210.000000 210.000000"
 preserveAspectRatio="xMidYMid meet">
<metadata>
Created by potrace 1.16, written by Peter Selinger 2001-2019
</metadata>
<g transform="translate(0.000000,210.000000) scale(0.100000,-0.100000)"
fill="#000000" stroke="none">
<path d="M1206 1930 c-3 -16 -9 -43 -12 -60 -5 -30 -24 -42 -24 -17 0 7 -7 22
-14 33 -13 17 -13 14 -1 -21 17 -49 19 -121 4 -181 -15 -58 -37 -55 -61 6 -15
40 -17 42 -17 16 -1 -16 17 -61 39 -101 48 -86 74 -183 65 -234 -8 -45 -74
-171 -92 -178 -15 -6 -49 21 -65 50 -16 31 -52 228 -51 282 1 28 9 70 17 94
20 53 20 180 1 271 l-13 65 -1 -69 c-1 -55 -4 -67 -13 -58 -23 23 -29 12 -9
-17 29 -40 26 -78 -11 -174 -17 -45 -32 -98 -34 -117 -1 -19 -2 -41 -3 -48 -2
-21 -69 37 -96 83 -29 49 -31 83 -9 128 11 21 12 28 3 20 -18 -18 -39 -16 -39
2 0 17 -41 108 -46 102 -2 -1 3 -23 10 -47 7 -25 16 -62 19 -83 5 -33 4 -37
-9 -26 -24 19 -29 1 -7 -24 11 -12 26 -40 33 -62 7 -22 25 -56 41 -76 25 -32
26 -36 11 -46 -15 -10 -14 -12 8 -12 14 -1 36 -8 49 -17 43 -31 80 -146 49
-156 -8 -3 -4 -12 10 -26 27 -27 29 -62 5 -62 -9 0 -36 19 -59 43 -23 23 -52
50 -63 59 -11 10 -27 42 -36 72 -10 35 -25 60 -40 70 -13 9 -38 43 -56 76 -17
33 -34 58 -36 56 -9 -8 17 -72 48 -121 35 -55 27 -69 -30 -58 -22 4 -32 2 -28
-4 4 -6 27 -14 51 -17 50 -8 61 -17 71 -64 4 -18 22 -48 41 -66 19 -18 34 -36
34 -39 0 -7 -64 2 -109 15 -42 13 -114 78 -131 117 -9 23 -9 34 1 53 11 20 10
22 -3 10 -21 -17 -38 4 -54 71 -7 29 -13 44 -13 35 -1 -23 -7 -23 -38 2 -14
11 -35 20 -47 20 -16 0 -11 -6 19 -23 42 -23 75 -75 78 -124 2 -26 -1 -28 -41
-31 -37 -3 -110 12 -168 35 -32 12 -5 -14 31 -32 42 -19 39 -27 -33 -75 -61
-41 -43 -38 34 5 65 37 79 42 69 25 -9 -15 7 -12 29 5 32 24 72 18 111 -16 20
-18 43 -45 51 -61 14 -26 14 -32 0 -52 -18 -28 -52 -36 -170 -37 -50 0 -100
-4 -111 -9 -17 -7 -15 -9 13 -9 17 -1 32 -5 32 -11 0 -12 -98 -90 -113 -90 -5
0 -7 -3 -4 -7 4 -3 38 15 76 41 77 53 151 73 151 41 0 -23 -73 -120 -103 -137
-12 -7 -44 -15 -72 -19 -47 -7 -46 -7 18 -6 37 1 67 -1 67 -4 0 -3 -13 -30
-29 -60 -16 -30 -32 -65 -35 -79 -4 -14 8 3 27 36 114 208 237 314 364 314 56
0 103 -13 103 -29 0 -6 -13 -17 -29 -26 -16 -8 -51 -33 -77 -55 -29 -26 -52
-39 -62 -35 -9 3 -37 8 -62 10 -25 2 -36 2 -25 -1 34 -9 65 -27 65 -38 0 -6
-23 -24 -50 -41 -28 -16 -63 -43 -78 -59 l-27 -29 30 20 c17 11 57 34 90 51
33 16 92 55 132 86 92 72 117 82 143 56 35 -35 51 -116 62 -315 11 -221 6
-320 -21 -381 -21 -46 -63 -79 -116 -89 -16 -3 -74 -18 -128 -32 -204 -55 12
-52 248 4 l111 26 94 -31 c116 -39 226 -56 304 -49 45 4 71 1 109 -14 34 -13
48 -16 45 -7 -9 25 -65 48 -167 68 -110 22 -195 52 -224 78 -34 31 -45 108
-51 362 -5 216 -3 251 12 294 13 39 25 54 54 68 76 40 235 16 305 -45 24 -20
34 -26 30 -14 -5 13 -1 17 21 17 21 0 44 -18 102 -80 78 -82 111 -106 66 -47
-27 36 -34 67 -15 67 7 0 -3 10 -21 23 -48 32 -49 47 -6 47 45 0 95 20 120 49
23 25 11 28 -17 4 -37 -34 -287 -14 -287 23 0 9 -11 14 -34 14 -21 0 -36 6
-40 15 -3 8 -4 15 -3 15 1 0 35 11 75 25 40 13 109 28 152 31 65 6 77 9 64 19
-15 10 -13 14 18 33 19 12 43 31 54 44 l19 22 -30 -19 c-85 -54 -165 -86 -165
-67 0 5 11 19 25 32 14 13 25 28 25 34 0 5 -12 -2 -27 -16 -16 -14 -46 -35
-69 -46 -83 -42 -317 -91 -299 -62 4 6 -11 2 -34 -9 -75 -39 -115 -20 -76 36
16 23 56 34 214 58 127 19 218 45 276 79 50 30 56 44 9 25 -48 -19 -167 -49
-194 -48 -23 0 -21 3 24 45 27 25 70 56 95 69 51 27 31 34 -26 10 l-35 -15 4
90 c5 106 -6 97 -28 -23 -17 -87 -33 -122 -35 -71 0 21 -5 14 -17 -31 -13 -44
-23 -62 -42 -71 -28 -14 -210 -33 -210 -22 0 3 15 16 34 28 44 27 82 70 140
159 27 42 56 75 71 81 28 11 33 20 11 20 -8 0 -28 -12 -45 -26 -17 -14 -31
-23 -31 -21 0 3 7 38 15 77 16 75 46 130 71 130 8 0 14 5 14 10 0 7 -6 7 -19
0 -27 -14 -31 -13 -31 8 -1 26 -38 -81 -63 -178 -24 -94 -36 -78 -14 18 8 34
10 59 6 56 -15 -9 -39 -107 -39 -161 0 -50 -11 -68 -24 -40 -3 6 -4 -1 -2 -16
3 -23 -3 -32 -33 -53 -19 -13 -38 -24 -41 -24 -3 0 -6 17 -6 38 -1 20 -5 66
-9 102 -5 47 -2 79 9 115 14 47 9 47 -20 -1 -15 -25 -34 -9 -34 29 1 41 33
186 49 215 8 16 9 22 0 22 -8 0 -9 18 -4 60 7 62 1 83 -9 30z"/>
</g>
</svg>
